<svg xmlns="http://www.w3.org/2000/svg" viewBox="0 0 460 1166" width="460" height="1166" role="img" aria-labelledby="title desc" font-family="-apple-system, BlinkMacSystemFont, 'Segoe UI', Helvetica, Arial, sans-serif" shape-rendering="geometricPrecision">
<title id="title">The staff-engineer lifecycle</title>
<desc id="desc">Agree: begin, grill-me, brief. Build: first working pass, preview, operator feedback (change requests loop back). Finish: tests, simplify, docs, lifecycle gate and verify. Save: handoff, ship it approval (hold loops back to finishing), ship as one commit.</desc>
<defs>
  <marker id="arrow" viewBox="0 0 10 10" refX="9" refY="5" markerWidth="7" markerHeight="7" orient="auto">
    <path d="M 0 0 L 10 5 L 0 10 z" fill="#e5521b"/>
  </marker>
  <pattern id="panel-grid" width="24" height="24" patternUnits="userSpaceOnUse">
    <path d="M24 0H0V24" fill="none" stroke="#c9bba6" stroke-width="0.7" opacity="0.24"/>
  </pattern>
</defs>

<rect width="460" height="1166" fill="#f6f0e5"/>
<rect x="14" y="14" width="432" height="1138" rx="2" fill="none" stroke="#665e52" stroke-width="1" stroke-opacity="0.72"/>
<g fill="none" stroke="#665e52" stroke-width="1" stroke-linecap="square" stroke-opacity="0.72">
  <path d="M14 32H5 M22 14V5 M446 32H455 M438 14V5 M14 1134H5 M22 1152V1161 M446 1134H455 M438 1152V1161"/>
  <path d="M20 280H29 M431 280H440 M20 552H29 M431 552H440 M20 902H29 M431 902H440"/>
</g>

<rect x="18" y="18" width="424" height="250" rx="16" fill="#fbf7ef" stroke="#b3a48f" stroke-width="1.2"/>
<rect x="18" y="18" width="424" height="250" rx="16" fill="url(#panel-grid)" opacity="0.5"/>
<text x="30" y="40" font-size="12" font-weight="700" letter-spacing="1.5" fill="#1a2024">AGREE</text>
<line x1="30" y1="28" x2="92" y2="28" stroke="#e5521b" stroke-width="1.6"/>

<rect x="18" y="290" width="424" height="250" rx="16" fill="#fbf7ef" stroke="#b3a48f" stroke-width="1.2"/>
<rect x="18" y="290" width="424" height="250" rx="16" fill="url(#panel-grid)" opacity="0.5"/>
<text x="30" y="312" font-size="12" font-weight="700" letter-spacing="1.5" fill="#1a2024">BUILD</text>
<line x1="30" y1="300" x2="92" y2="300" stroke="#e5521b" stroke-width="1.6"/>

<rect x="18" y="562" width="424" height="324" rx="16" fill="#fbf7ef" stroke="#b3a48f" stroke-width="1.2"/>
<rect x="18" y="562" width="424" height="324" rx="16" fill="url(#panel-grid)" opacity="0.5"/>
<text x="30" y="584" font-size="12" font-weight="700" letter-spacing="1.5" fill="#1a2024">FINISH</text>
<line x1="30" y1="572" x2="92" y2="572" stroke="#e5521b" stroke-width="1.6"/>

<rect x="18" y="912" width="424" height="236" rx="16" fill="#fbf7ef" stroke="#b3a48f" stroke-width="1.2"/>
<rect x="18" y="912" width="424" height="236" rx="16" fill="url(#panel-grid)" opacity="0.5"/>
<text x="30" y="934" font-size="12" font-weight="700" letter-spacing="1.5" fill="#1a2024">SAVE</text>
<line x1="30" y1="922" x2="92" y2="922" stroke="#e5521b" stroke-width="1.6"/>

<g fill="none" stroke="#e5521b" stroke-width="1.8" stroke-linecap="round" stroke-linejoin="round" marker-end="url(#arrow)">
  <line x1="190" y1="94" x2="190" y2="119"/>
  <line x1="190" y1="172" x2="190" y2="197"/>
  <line x1="190" y1="250" x2="190" y2="313"/>
  <line x1="190" y1="366" x2="190" y2="391"/>
  <line x1="190" y1="444" x2="190" y2="469"/>
  <line x1="190" y1="522" x2="190" y2="585"/>
  <line x1="190" y1="638" x2="190" y2="663"/>
  <line x1="190" y1="716" x2="190" y2="741"/>
  <line x1="190" y1="794" x2="190" y2="819"/>
  <line x1="190" y1="872" x2="190" y2="935"/>
  <line x1="190" y1="988" x2="190" y2="1013"/>
  <line x1="190" y1="1066" x2="190" y2="1091"/>
</g>
<text x="200" y="558" font-size="12" font-style="italic" font-weight="600" fill="#c4491b">looks good</text>
<text x="200" y="1083" font-size="12" font-style="italic" font-weight="600" fill="#c4491b">yes</text>

<g fill="none" stroke="#e5521b" stroke-width="1.8" stroke-linecap="round" stroke-linejoin="round" stroke-dasharray="6 5" marker-end="url(#arrow)">
  <path d="M 340 496 H 388 V 340 H 342"/>
  <path d="M 340 1040 H 426 V 612 H 342"/>
</g>
<g fill="#f6f0e5" stroke="#e5521b" stroke-width="1.4">
  <circle cx="340" cy="496" r="3.2"/>
  <circle cx="340" cy="1040" r="3.2"/>
</g>
<text x="401" y="418" font-size="12" font-style="italic" font-weight="600" fill="#c4491b" text-anchor="middle" transform="rotate(-90 401 418)">change this</text>
<text x="439" y="826" font-size="12" font-style="italic" font-weight="600" fill="#c4491b" text-anchor="middle" transform="rotate(-90 439 826)">hold</text>

<g fill="#fffaf2" stroke="#655d51" stroke-width="1.3">
  <rect x="40" y="42" width="300" height="52" rx="12"/>
  <rect x="40" y="120" width="300" height="52" rx="12"/>
  <rect x="40" y="198" width="300" height="52" rx="12"/>
  <rect x="40" y="314" width="300" height="52" rx="12"/>
  <rect x="40" y="392" width="300" height="52" rx="12"/>
  <rect x="40" y="586" width="300" height="52" rx="12"/>
  <rect x="40" y="664" width="300" height="52" rx="12"/>
  <rect x="40" y="742" width="300" height="52" rx="12"/>
  <rect x="40" y="820" width="300" height="52" rx="12"/>
  <rect x="40" y="936" width="300" height="52" rx="12"/>
</g>
<g fill="#fff0e6" stroke="#e5521b" stroke-width="1.5">
  <rect x="40" y="470" width="300" height="52" rx="26"/>
  <rect x="40" y="1014" width="300" height="52" rx="26"/>
  <rect x="40" y="1092" width="300" height="52" rx="12"/>
</g>

<g fill="#1a2024" text-anchor="middle">
  <text x="190" y="64" font-size="16" font-weight="600">begin</text>
  <text x="190" y="142" font-size="16" font-weight="600">grill-me</text>
  <text x="190" y="220" font-size="16" font-weight="600">brief</text>
  <text x="190" y="336" font-size="16" font-weight="600">first working pass</text>
  <text x="190" y="414" font-size="16" font-weight="600">preview</text>
  <text x="190" y="502" font-size="16" font-weight="600">operator feedback</text>
  <text x="190" y="618" font-size="16" font-weight="600">tests</text>
  <text x="190" y="686" font-size="16" font-weight="600">simplify</text>
  <text x="190" y="774" font-size="16" font-weight="600">docs</text>
  <text x="190" y="842" font-size="16" font-weight="600">lifecycle gate + verify</text>
  <text x="190" y="958" font-size="16" font-weight="600">handoff</text>
  <text x="190" y="1046" font-size="16" font-weight="600">“ship it”?</text>
  <text x="190" y="1114" font-size="16" font-weight="600">ship</text>
</g>
<g fill="#514b42" text-anchor="middle">
  <text x="190" y="83" font-size="12">one concern at a time</text>
  <text x="190" y="161" font-size="12">interview the operator, three questions a round</text>
  <text x="190" y="239" font-size="12">outcome, acceptance checks, non-goals</text>
  <text x="190" y="355" font-size="12">SOLID; no tests yet</text>
  <text x="190" y="433" font-size="12">show the working result</text>
  <text x="190" y="705" font-size="12">four-lens cleanup review</text>
  <text x="190" y="861" font-size="12">receipt for this exact code</text>
  <text x="190" y="977" font-size="12">plain-language approval request</text>
  <text x="190" y="1133" font-size="12">one guarded commit</text>
</g>

<g fill="none" stroke="#e5521b" stroke-width="1" stroke-linecap="square" opacity="0.78">
  <path d="M52 55H72 M52 133H72 M52 211H72 M52 327H72 M52 405H72 M52 599H72 M52 677H72 M52 755H72 M52 833H72 M52 949H72 M52 1027H72 M52 1105H72"/>
</g>
</svg>
